<?xml version="1.0" encoding="utf-8"?>
<svg viewBox="176.439 258.208 45.245 20.682" xmlns="http://www.w3.org/2000/svg">
  <path d="M 186.063 205.778 Q 185.072 205.778 184.45 205.17 Q 183.827 204.562 183.827 203.55 L 183.827 203.433 Q 183.827 202.755 184.089 202.219 Q 184.352 201.684 184.833 201.395 Q 185.314 201.105 185.93 201.105 Q 186.855 201.105 187.386 201.688 Q 187.917 202.271 187.917 203.342 L 187.917 203.833 L 185.047 203.833 Q 185.105 204.275 185.399 204.541 Q 185.693 204.808 186.143 204.808 Q 186.838 204.808 187.23 204.304 L 187.821 204.966 Q 187.55 205.349 187.088 205.564 Q 186.626 205.778 186.063 205.778 Z M 185.926 202.08 Q 185.568 202.08 185.345 202.321 Q 185.122 202.563 185.06 203.013 L 186.734 203.013 L 186.734 202.917 Q 186.726 202.517 186.517 202.298 Q 186.309 202.08 185.926 202.08 Z" transform="matrix(2.233775, -0.434348, 0.354822, 1.824794, -303.627594, -20.632727)" style="fill: rgb(240, 85, 54); white-space: pre;"/>
  <path d="M 210.735 263.663 L 210.806 264.639 Q 211.712 263.507 213.235 263.507 Q 214.579 263.507 215.235 264.296 Q 215.892 265.085 215.907 266.655 L 215.907 272.116 L 213.649 272.116 L 213.649 266.71 Q 213.649 265.991 213.337 265.667 Q 213.024 265.343 212.298 265.343 Q 211.345 265.343 210.868 266.155 L 210.868 272.116 L 208.61 272.116 L 208.61 263.663 Z" transform="matrix(1.155353, 0, 0, 1, -51.674217, 2.071075)" style="fill: rgb(240, 85, 54); white-space: pre;"/>
  <path d="M 219.873 269.358 L 221.444 263.663 L 223.803 263.663 L 220.951 272.116 L 218.795 272.116 L 215.944 263.663 L 218.303 263.663 Z" transform="matrix(1.155353, 0, 0, 1, -51.674217, 2.071075)" style="fill: rgb(240, 85, 54); white-space: pre;"/>
  <path d="M 226.276 272.116 L 224.011 272.116 L 224.011 263.663 L 226.276 263.663 Z M 223.878 261.475 Q 223.878 260.968 224.218 260.639 Q 224.557 260.311 225.143 260.311 Q 225.721 260.311 226.065 260.639 Q 226.409 260.968 226.409 261.475 Q 226.409 261.991 226.061 262.319 Q 225.714 262.647 225.143 262.647 Q 224.573 262.647 224.225 262.319 Q 223.878 261.991 223.878 261.475 Z" transform="matrix(1.155353, 0, 0, 1, -51.674217, 2.071075)" style="fill: rgb(240, 85, 54); white-space: pre;"/>
  <path d="M 186.063 205.778 Q 185.072 205.778 184.45 205.17 Q 183.827 204.562 183.827 203.55 L 183.827 203.433 Q 183.827 202.755 184.089 202.219 Q 184.352 201.684 184.833 201.395 Q 185.314 201.105 185.93 201.105 Q 186.855 201.105 187.386 201.688 Q 187.917 202.271 187.917 203.342 L 187.917 203.833 L 185.047 203.833 Q 185.105 204.275 185.399 204.541 Q 185.693 204.808 186.143 204.808 Q 186.838 204.808 187.23 204.304 L 187.821 204.966 Q 187.55 205.349 187.088 205.564 Q 186.626 205.778 186.063 205.778 Z M 185.926 202.08 Q 185.568 202.08 185.345 202.321 Q 185.122 202.563 185.06 203.013 L 186.734 203.013 L 186.734 202.917 Q 186.726 202.517 186.517 202.298 Q 186.309 202.08 185.926 202.08 Z" transform="matrix(2.233775, -0.434348, 0.354823, 1.824794, -272.312927, -20.620062)" style="fill: rgb(240, 85, 54); white-space: pre;"/>
</svg>